<mxfile host="65bd71144e">
    <diagram id="ua9ZdfOcBCjsb__uROE_" name="ページ1">
        <mxGraphModel dx="453" dy="424" grid="1" gridSize="10" guides="1" tooltips="1" connect="1" arrows="1" fold="1" page="1" pageScale="1" pageWidth="827" pageHeight="1169" math="0" shadow="0">
            <root>
                <mxCell id="0"/>
                <mxCell id="1" parent="0"/>
                <mxCell id="amhhyaVPKtDlaMvMmhRL-2" value="ユーザ" style="shape=umlActor;verticalLabelPosition=bottom;verticalAlign=top;html=1;outlineConnect=0;" parent="1" vertex="1">
                    <mxGeometry x="190" y="162.5" width="30" height="60" as="geometry"/>
                </mxCell>
                <mxCell id="amhhyaVPKtDlaMvMmhRL-3" value="" style="rounded=0;whiteSpace=wrap;html=1;" parent="1" vertex="1">
                    <mxGeometry x="350" y="95" width="210" height="255" as="geometry"/>
                </mxCell>
                <mxCell id="amhhyaVPKtDlaMvMmhRL-5" value="&lt;span style=&quot;white-space: pre;&quot;&gt;&#x9;&lt;/span&gt;システム内部" style="text;html=1;align=center;verticalAlign=middle;whiteSpace=wrap;rounded=0;" parent="1" vertex="1">
                    <mxGeometry x="390" y="100" width="110" height="30" as="geometry"/>
                </mxCell>
                <mxCell id="amhhyaVPKtDlaMvMmhRL-10" value="名前を変更する" style="ellipse;whiteSpace=wrap;html=1;" parent="1" vertex="1">
                    <mxGeometry x="370" y="140" width="170" height="50" as="geometry"/>
                </mxCell>
                <mxCell id="amhhyaVPKtDlaMvMmhRL-11" value="時刻に応じた挨拶をする" style="ellipse;whiteSpace=wrap;html=1;" parent="1" vertex="1">
                    <mxGeometry x="370" y="210" width="170" height="50" as="geometry"/>
                </mxCell>
                <mxCell id="amhhyaVPKtDlaMvMmhRL-12" value="" style="endArrow=none;html=1;rounded=0;entryX=0;entryY=0.5;entryDx=0;entryDy=0;" parent="1" edge="1" target="amhhyaVPKtDlaMvMmhRL-11">
                    <mxGeometry width="50" height="50" relative="1" as="geometry">
                        <mxPoint x="240" y="190" as="sourcePoint"/>
                        <mxPoint x="360" y="226.3953488372092" as="targetPoint"/>
                    </mxGeometry>
                </mxCell>
                <mxCell id="amhhyaVPKtDlaMvMmhRL-13" value="" style="endArrow=none;html=1;rounded=0;entryX=0;entryY=0.5;entryDx=0;entryDy=0;" parent="1" edge="1" target="amhhyaVPKtDlaMvMmhRL-10">
                    <mxGeometry width="50" height="50" relative="1" as="geometry">
                        <mxPoint x="240" y="190" as="sourcePoint"/>
                        <mxPoint x="360" y="170" as="targetPoint"/>
                    </mxGeometry>
                </mxCell>
                <mxCell id="amhhyaVPKtDlaMvMmhRL-14" value="RoboDog" style="text;html=1;align=center;verticalAlign=middle;whiteSpace=wrap;rounded=0;" parent="1" vertex="1">
                    <mxGeometry x="200" y="95" width="110" height="30" as="geometry"/>
                </mxCell>
                <mxCell id="2" value="足し算をする" style="ellipse;whiteSpace=wrap;html=1;" vertex="1" parent="1">
                    <mxGeometry x="370" y="280" width="170" height="50" as="geometry"/>
                </mxCell>
                <mxCell id="3" value="" style="endArrow=none;html=1;rounded=0;entryX=0;entryY=0.5;entryDx=0;entryDy=0;" edge="1" parent="1" target="2">
                    <mxGeometry width="50" height="50" relative="1" as="geometry">
                        <mxPoint x="240" y="190" as="sourcePoint"/>
                        <mxPoint x="360" y="296.3953488372092" as="targetPoint"/>
                    </mxGeometry>
                </mxCell>
            </root>
        </mxGraphModel>
    </diagram>
</mxfile>